<?xml version="1.0" encoding="UTF-8" standalone="no"?>
<!DOCTYPE svg PUBLIC "-//W3C//DTD SVG 1.1//EN" "http://www.w3.org/Graphics/SVG/1.1/DTD/svg11.dtd">
<svg width="46mm" height="46mm" version="1.1" viewBox="0 0 130.394 130.394" xmlns="http://www.w3.org/2000/svg">
<g font-family="Helvetica,Arial,&quot;Liberation Sans&quot;" transform="translate(0 130.394)">
<title>Swiss QR Bill</title>
<g transform="translate(0 -0) scale(2.898)">
<path fill="#000000" shape-rendering="crispEdges"
d="M0,-45h7v1h-7zm8,0h1v2h-1zm2,0h1v2h-1zm2,0h1v1h-1zm2,0h4v1h-4zm5,0h1v2h-1z
m2,-0h1v5h-1zm1,0h2v1h-2zm3,0h1v2h-1zm2,0h1v1h-1zm3,0h1v2h-1zm6,0h1v1h-1z
m2,0h7v1h-7zm-38,1h1v6h-1zm6,0h1v6h-1zm3,0h1v1h-1zm4,0h3v1h-3zm4,0h2v1h-2z
m3,0h1v1h-1zm3,0h1v1h-1zm8,0h2v1h-2zm4,-0h1v4h-1zm3,0h1v6h-1zm6,0h1v6h-1z
m-42,1h3v3h-3zm9,0h1v3h-1zm7,0h1v2h-1zm4,-0h1v3h-1zm4,0h1v3h-1zm2,0h1v1h-1z
m3,0h1v1h-1zm9,-0h3v3h-3zm-32,1h1v1h-1zm4,-0h3v2h-3zm3,0h2v1h-2zm9,-0h1v7h-1z
m5,0h2v1h-2zm4,0h1v1h-1zm3,-0h1v2h-1zm-27,1h1v1h-1zm8,0h1v2h-1zm2,0h2v2h-2z
m4,0h1v1h-1zm5,0h1v1h-1zm6,0h1v1h-1zm-21,1h1v1h-1zm2,0h2v1h-2zm3,0h1v5h-1z
m7,0h1v1h-1zm5,0h3v1h-3zm-29,1h5v1h-5zm7,0h1v2h-1zm2,0h1v1h-1zm2,0h1v2h-1z
m2,0h1v2h-1zm2,0h1v3h-1zm4,0h1v3h-1zm2,0h1v1h-1zm4,0h1v2h-1zm2,0h1v4h-1z
m2,0h1v1h-1zm2,0h1v1h-1zm2,0h1v2h-1zm2,0h1v1h-1zm3,0h5v1h-5zm-30,1h1v2h-1z
m2,0h1v1h-1zm2,0h1v2h-1zm2,0h1v2h-1zm2,0h1v2h-1zm2,0h1v2h-1zm6,0h1v1h-1z
m2,0h1v1h-1zm2,0h1v2h-1zm2,0h1v2h-1zm-31,1h1v2h-1zm2,0h2v1h-2zm3,0h3v1h-3z
m5,0h1v1h-1zm11,0h3v2h-3zm14,0h2v2h-2zm3,0h1v1h-1zm3,0h1v1h-1zm2,0h1v3h-1z
m1,0h1v1h-1zm-43,1h1v2h-1zm2,0h2v1h-2zm4,0h1v5h-1zm1,0h1v1h-1zm3,0h1v3h-1z
m19,0h1v3h-1zm2,0h2v1h-2zm7,0h1v1h-1zm-37,1h1v2h-1zm2,0h3v1h-3zm9,0h3v1h-3z
m6,0h3v1h-3zm6,0h1v5h-1zm8,0h1v4h-1zm1,0h1v1h-1zm3,0h1v1h-1zm4,0h1v1h-1z
m3,0h1v2h-1zm-44,1h1v1h-1zm4,0h1v2h-1zm4,0h1v1h-1zm4,0h1v3h-1zm7,0h1v2h-1z
m3,0h2v1h-2zm6,0h1v1h-1zm3,0h2v1h-2zm4,0h1v1h-1zm3,0h1v6h-1zm2,0h1v1h-1z
m-37,1h1v1h-1zm3,0h1v1h-1zm7,0h1v1h-1zm2,0h4v1h-4zm6,0h1v1h-1zm2,0h2v1h-2z
m3,0h1v3h-1zm5,0h1v1h-1zm8,0h1v1h-1zm3,0h1v2h-1zm-42,1h2v4h-2zm5,0h1v3h-1z
m4,0h1v2h-1zm2,0h1v1h-1zm6,0h1v1h-1zm3,0h1v1h-1zm4,0h1v1h-1zm3,0h3v1h-3z
m10,0h1v2h-1zm3,0h2v1h-2zm4,0h1v1h-1zm-40,1h1v3h-1zm2,0h1v1h-1zm7,0h1v2h-1z
m2,0h2v1h-2zm4,0h1v1h-1zm3,0h2v1h-2zm5,0h1v1h-1zm4,0h1v2h-1zm4,0h1v3h-1z
m1,0h1v1h-1zm7,0h1v1h-1zm-40,1h1v3h-1zm4,0h1v4h-1zm1,0h1v1h-1zm2,0h1v2h-1z
m4,0h1v1h-1zm3,0h1v2h-1zm7,0h1v4h-1zm6,0h1v1h-1zm2,0h2v2h-2zm7,0h4v1h-4z
m5,0h1v1h-1zm-42,1h1v1h-1zm4,0h1v1h-1zm6,0h1v1h-1zm4,0h1v3h-1zm4,0h1v3h-1z
m7,0h1v1h-1zm2,0h1v1h-1zm5,0h1v2h-1zm3,0h1v1h-1zm2,0h1v2h-1zm2,0h2v1h-2z
m-40,1h1v2h-1zm8,0h1v7h-1zm2,0h1v2h-1zm3,0h1v1h-1zm4,0h2v1h-2zm4,0h1v1h-1z
m9,0h1v1h-1zm9,0h1v2h-1zm2,0h3v1h-3zm-42,1h1v1h-1zm5,0h2v1h-2zm3,0h1v8h-1z
m2,0h1v2h-1zm5,0h1v1h-1zm6,0h1v1h-1zm2,0h1v1h-1zm3,0h4v1h-4zm6,0h2v1h-2z
m4,0h1v1h-1zm2,0h1v1h-1zm5,0h1v5h-1zm-40,1h1v1h-1zm10,0h1v1h-1zm4,0h2v1h-2z
m15,0h1v1h-1zm2,0h2v1h-2zm7,0h1v1h-1zm-41,1h1v2h-1zm2,0h1v1h-1zm2,0h1v6h-1z
m1,0h3v1h-3zm7,-0h1v2h-1zm2,0h1v1h-1zm2,0h1v1h-1zm10,0h1v1h-1zm2,0h1v1h-1z
m3,0h1v1h-1zm5,0h5v1h-5zm-33,1h1v1h-1zm8,0h1v1h-1zm4,0h1v4h-1zm3,0h1v1h-1z
m9,0h1v1h-1zm2,0h2v2h-2zm3,-0h2v1h-2zm4,0h1v4h-1zm4,0h1v4h-1zm2,0h1v1h-1z
m-41,1h2v1h-2zm5,0h1v1h-1zm4,-0h1v4h-1zm3,0h1v2h-1zm3,0h2v1h-2zm10,0h1v1h-1z
m2,0h1v1h-1zm10,0h1v1h-1zm3,0h1v2h-1zm3,0h1v1h-1zm-44,1h1v2h-1zm2,0h2v1h-2z
m9,0h1v1h-1zm3,0h1v1h-1zm3,0h1v1h-1zm10,-0h1v2h-1zm4,0h1v1h-1zm3,0h1v1h-1z
m-29,1h3v1h-3zm11,0h1v2h-1zm2,0h1v1h-1zm12,0h1v1h-1zm7,0h3v1h-3zm5,0h2v2h-2z
m-40,1h1v2h-1zm7,0h1v2h-1zm2,0h2v1h-2zm15,0h1v4h-1zm3,0h1v2h-1zm3,0h1v1h-1z
m3,0h1v4h-1zm4,0h1v1h-1zm2,0h1v1h-1zm3,0h1v1h-1zm-43,1h1v1h-1zm5,0h2v1h-2z
m6,0h2v3h-2zm2,0h2v1h-2zm3,0h1v3h-1zm2,0h1v2h-1zm2,0h1v2h-1zm2,0h2v1h-2z
m7,0h2v1h-2zm4,0h1v1h-1zm8,0h1v2h-1zm-42,1h1v1h-1zm4,0h1v4h-1zm4,0h1v1h-1z
m7,0h2v1h-2zm7,0h1v1h-1zm2,0h1v1h-1zm3,0h1v2h-1zm6,0h1v3h-1zm6,0h2v2h-2z
m2,0h1v1h-1zm3,0h1v2h-1zm-43,1h1v5h-1zm1,0h1v1h-1zm3,0h2v1h-2zm4,0h2v2h-2z
m2,0h1v1h-1zm3,0h1v1h-1zm6,0h1v2h-1zm3,0h1v1h-1zm6,0h4v1h-4zm9,0h1v2h-1z
m5,0h1v2h-1zm-38,1h1v1h-1zm2,0h2v1h-2zm12,0h1v3h-1zm12,0h1v1h-1zm3,0h1v3h-1z
m2,0h1v6h-1zm1,0h1v1h-1zm3,0h1v4h-1zm-38,1h1v1h-1zm4,0h1v1h-1zm2,0h1v3h-1z
m8,0h1v1h-1zm5,0h2v1h-2zm3,0h1v1h-1zm2,0h1v1h-1zm2,0h1v1h-1zm2,0h1v1h-1z
m5,0h1v1h-1zm4,0h1v1h-1zm2,0h2v1h-2zm-41,1h1v1h-1zm7,0h1v1h-1zm3,0h2v1h-2z
m3,0h1v1h-1zm2,0h1v1h-1zm7,0h1v2h-1zm7,0h1v1h-1zm3,0h1v1h-1zm5,0h1v6h-1z
m-33,1h1v1h-1zm2,0h1v1h-1zm4,0h1v1h-1zm2,0h1v1h-1zm6,0h1v1h-1zm3,0h1v3h-1z
m3,0h1v1h-1zm4,0h1v1h-1zm10,0h1v1h-1zm3,0h4v1h-4zm-30,1h1v2h-1zm3,0h1v1h-1z
m6,0h1v1h-1zm5,0h1v1h-1zm2,0h1v1h-1zm3,0h4v1h-4zm5,0h1v3h-1zm4,0h1v1h-1z
m-35,1h1v3h-1zm2,-0h5v1h-5zm6,0h1v1h-1zm4,0h1v1h-1zm7,0h1v3h-1zm1,-0h1v1h-1z
m4,0h1v1h-1zm2,0h1v2h-1zm2,0h3v1h-3zm6,0h1v3h-1zm2,-0h5v1h-5zm-39,1h3v1h-3z
m6,0h1v2h-1zm2,0h1v2h-1zm4,0h1v1h-1zm2,0h1v6h-1zm2,-0h2v1h-2zm5,0h1v2h-1z
m3,0h3v1h-3zm4,0h1v2h-1zm2,0h1v1h-1zm12,0h1v1h-1zm-43,1h1v1h-1zm3,0h1v1h-1z
m3,0h1v1h-1zm2,0h1v4h-1zm2,0h3v1h-3zm4,0h1v3h-1zm2,-0h1v1h-1zm4,0h1v5h-1z
m1,0h1v1h-1zm3,0h1v5h-1zm2,0h1v2h-1zm7,0h2v1h-2zm3,0h1v5h-1zm3,0h2v1h-2z
m3,0h1v1h-1zm-32,1h1v1h-1zm7,0h2v1h-2zm10,0h1v2h-1zm8,0h1v1h-1zm5,0h2v2h-2z
m3,0h2v1h-2zm-43,1h7v1h-7zm9,0h1v2h-1zm3,0h1v1h-1zm6,0h1v1h-1zm4,0h1v1h-1z
m3,0h1v1h-1zm3,0h5v1h-5zm6,0h1v4h-1zm4,0h1v1h-1zm4,0h1v2h-1zm-42,1h1v6h-1z
m6,0h1v6h-1zm4,0h2v2h-2zm9,-0h1v1h-1zm9,0h1v1h-1zm2,0h4v1h-4zm10,0h1v2h-1z
m3,-0h2v1h-2zm-41,1h3v3h-3zm14,-0h1v1h-1zm5,0h3v1h-3zm5,0h1v1h-1zm3,0h1v1h-1z
m3,0h1v1h-1zm3,0h1v1h-1zm2,0h3v1h-3zm4,0h1v1h-1zm2,0h1v1h-1zm-35,1h1v2h-1z
m4,0h1v1h-1zm5,0h1v1h-1zm2,0h1v1h-1zm3,0h1v1h-1zm3,0h1v3h-1zm3,0h1v1h-1z
m5,0h1v2h-1zm5,0h1v1h-1zm6,0h1v1h-1zm-35,1h1v1h-1zm5,0h1v2h-1zm2,0h1v1h-1z
m2,0h1v2h-1zm3,0h1v1h-1zm2,0h1v3h-1zm3,0h1v2h-1zm3,0h1v2h-1zm6,0h2v1h-2z
m6,0h1v2h-1zm2,0h1v1h-1zm-30,1h1v2h-1zm2,0h1v1h-1zm2,0h1v1h-1zm3,0h1v1h-1z
m4,0h1v1h-1zm6,0h1v2h-1zm6,0h3v1h-3zm4,0h1v2h-1zm4,0h1v1h-1zm-43,1h5v1h-5z
m7,0h1v1h-1zm2,0h1v1h-1zm2,0h1v1h-1zm4,0h1v1h-1zm6,0h1v1h-1zm5,0h2v1h-2z
m4,0h1v1h-1zm2,0h1v1h-1zm4,0h2v1h-2z"/>
</g>
<path fill="#000000" shape-rendering="crispEdges"
d="M56.693,-73.701h17.008v17.008h-17.008z"/>
<path fill="#ffffff" shape-rendering="crispEdges"
d="M63.543,-59.685l3.307,0l0,-3.858l3.858,0l0,-3.307l-3.858,0l0,-3.858l-3.307,0l0,3.858l-3.858,0l0,3.307l3.858,0"/>
</g>
</svg>
